<?xml version="1.0" encoding="UTF-8" standalone="yes"?>
<svg version="1.2" viewBox="0 0 52 52" xml:space="preserve" baseProfile="tiny-ps" xmlns="http://www.w3.org/2000/svg">
  <title>bimi-svg-tiny-12-ps</title>
  <g class="st0">
    <path class="st1" d="M3.4,8.5h0.1c0.7,0,2.6,1.2,5.9,3.5l0.5,1.6L10.1,33c0,0.2-1.7,1.4-5,3.3l-1,0.2c-0.9,0-1.3-0.6-1.4-1.7&#xA;&#x9;&#x9;L2.6,10.4C2.6,9.6,2.9,8.9,3.4,8.5z M12.8,33.1c3.2,1.6,5.2,2.9,6.2,3.9v0.6c-0.7,0.7-3,2.1-6.7,4.2H12c-0.6,0-3-1.4-7.3-4.3v-0.1&#xA;&#x9;&#x9;c0.3,0,2.8-1.4,7.4-4.2L12.8,33.1z" fill="#FF2D20"/>
    <path class="st1" d="M23.7,13.8c0.7,0,2.7,1.1,5.9,3.3l0.1,0.5v19c0,1.4-0.8,2.3-2.5,2.9c-1.6,1.2-2.9,1.9-3.7,2.2&#xA;&#x9;&#x9;c-0.8,0-1.2-0.8-1.2-2.3V15.9C22.3,14.5,22.8,13.8,23.7,13.8z M39.8,8.5c0.8,0,1.3,0.8,1.4,2.3v5.9L41,16.9&#xA;&#x9;&#x9;c-4.3-2.8-6.7-4.2-7.3-4.2h-0.2c-1.3,0.2-1.9,0.9-1.9,1.9V17h-0.3c-4.1-2.7-6.4-4.1-6.9-4.1v-0.1c4.1-2.8,6.4-4.2,6.9-4.2&#xA;&#x9;&#x9;c0.2,0,1.6,0.8,4.1,2.5h0.1C35.7,11.1,37.1,10.3,39.8,8.5z M33.5,13.7c0.6,0,2.6,1.2,6,3.5l0.1,0.5v13c0,1.5-0.9,2.5-2.6,3.1&#xA;&#x9;&#x9;c-2,1.4-3.2,2-3.7,2c-0.7,0-1.1-0.7-1.1-2v-18C32.2,14.3,32.6,13.7,33.5,13.7z M41.8,9.2H42c4.4,2.6,6.7,4.1,7,4.5&#xA;&#x9;&#x9;c0.2,0,0.3,0.6,0.4,1.9v20.4c0,1.5-0.5,2.4-1.5,2.9c-3,1.8-4.6,2.6-4.9,2.6c-0.5,0-0.9-0.5-1-1.6V10.2L41.8,9.2z" fill="#FF2D20"/>
  </g>
</svg>